<?xml version="1.0" encoding="UTF-8"?>
<!-- Generator: visioncortex VTracer 0.6.3 -->
<svg version="1.1" xmlns="http://www.w3.org/2000/svg" width="1280" height="287">
<path d="M0 0 C0.95 0.4 1.9 0.8 2.88 1.21 C20.5 9.17 33.24 25.15 40 43 C40 43.66 40 44.32 40 45 C40.66 44.67 41.32 44.34 42 44 C42 43.44 41.99 42.88 41.99 42.31 C41.94 36.5 41.91 30.69 41.89 24.88 C41.88 22.71 41.87 20.55 41.85 18.38 C41.82 15.26 41.81 12.15 41.8 9.04 C41.79 8.07 41.78 7.09 41.77 6.09 C41.77 5.19 41.77 4.29 41.77 3.36 C41.77 2.56 41.76 1.77 41.76 0.95 C42 -1 42 -1 44 -3 C46.91 -3.19 49.72 -3.26 52.62 -3.23 C53.9 -3.23 53.9 -3.23 55.21 -3.23 C57.03 -3.23 58.84 -3.22 60.65 -3.21 C63.42 -3.19 66.2 -3.19 68.97 -3.19 C70.73 -3.18 72.49 -3.17 74.25 -3.17 C75.08 -3.17 75.91 -3.17 76.77 -3.16 C80.09 -3.14 82.82 -3.06 86 -2 C87.69 3.16 88.23 7.6 88 13 C89.83 12.94 89.83 12.94 92 12 C93.14 10.59 94.28 9.18 95.41 7.75 C101.49 1.07 109.5 -2.47 118 -5 C118.9 -5.29 118.9 -5.29 119.82 -5.58 C135.15 -8.53 150.12 -4.43 163 4 C165.84 6.16 168.61 8.34 171 11 C171 11.66 171 12.32 171 13 C171.55 12.41 172.1 11.82 172.66 11.21 C189.39 -4.62 213.87 -6.7 235.62 -6.29 C242.7 -6.05 249.21 -5.16 256 -3 C257.05 -2.69 257.05 -2.69 258.11 -2.38 C260.15 -1.7 262.05 -0.89 264 0 C265.07 0.48 266.14 0.97 267.24 1.46 C285.06 9.79 300.19 23.36 307.34 41.93 C308 44 308 44 308 46 C308.66 46 309.32 46 310 46 C310 45.42 309.99 44.83 309.99 44.23 C309.94 38.16 309.91 32.1 309.89 26.03 C309.88 23.76 309.87 21.5 309.85 19.23 C309.82 15.98 309.81 12.73 309.8 9.48 C309.79 8.46 309.78 7.44 309.77 6.39 C309.77 5.45 309.77 4.51 309.77 3.54 C309.77 2.71 309.76 1.88 309.76 1.02 C310 -1 310 -1 312 -3 C314.99 -3.2 317.88 -3.28 320.88 -3.27 C322.2 -3.27 322.2 -3.27 323.54 -3.27 C325.41 -3.27 327.27 -3.27 329.13 -3.26 C331.99 -3.25 334.85 -3.26 337.7 -3.27 C339.51 -3.27 341.32 -3.27 343.12 -3.27 C343.98 -3.27 344.84 -3.27 345.73 -3.28 C351.77 -3.23 351.77 -3.23 354 -1 C354.61 1.02 355.14 3.07 355.62 5.12 C355.89 6.22 356.15 7.32 356.41 8.45 C356.61 9.29 356.8 10.13 357 11 C357.66 11 358.32 11 359 11 C359.64 10.32 360.28 9.64 360.94 8.94 C370.76 -1.08 384.48 -6.01 398.29 -6.54 C416.41 -6.7 429.16 0.63 442 13 C443 14 444.01 14.99 445 16 C445.6 15.34 446.2 14.68 446.81 14 C453.35 7.57 460.72 2.83 469.06 -0.88 C469.7 -1.16 470.33 -1.45 470.99 -1.74 C480 -5.55 488.86 -6.31 498.56 -6.19 C499.56 -6.19 500.55 -6.19 501.58 -6.19 C508.86 -6.14 508.86 -6.14 510 -5 C511.09 -4.92 512.19 -4.83 513.31 -4.75 C526.92 -3.14 539.33 5.77 548 16 C561.75 33.96 561.31 55.91 561.2 77.46 C561.19 79.6 561.19 81.73 561.19 83.86 C561.18 89.42 561.16 94.97 561.14 100.53 C561.11 107.23 561.1 113.92 561.09 120.62 C561.07 130.75 561.03 140.87 561 151 C544.5 151 528 151 511 151 C509.31 147.63 509.87 143.81 509.87 140.1 C509.87 138.72 509.87 138.72 509.87 137.31 C509.86 135.3 509.86 133.29 509.86 131.28 C509.86 127.01 509.84 122.74 509.82 118.46 C509.78 110.5 509.75 102.54 509.75 94.58 C509.75 89.05 509.73 83.52 509.69 77.99 C509.68 75.88 509.68 73.77 509.68 71.67 C509.69 68.71 509.67 65.76 509.64 62.8 C509.65 61.94 509.66 61.08 509.67 60.19 C509.58 54.43 508.16 50.69 505.07 45.82 C504 44 504 44 504 42 C503.28 41.71 502.56 41.42 501.81 41.12 C500.1 40.44 498.39 39.72 496.71 38.96 C489.82 36.52 482.08 37.05 475.5 40.12 C467.3 44.89 463.96 52.06 461.46 60.91 C460.69 64.41 460.82 67.97 460.79 71.53 C460.78 72.82 460.78 72.82 460.76 74.13 C460.73 76.97 460.71 79.81 460.68 82.64 C460.66 84.61 460.64 86.58 460.62 88.54 C460.57 93.72 460.52 98.89 460.47 104.07 C460.41 110.28 460.34 116.49 460.28 122.7 C460.18 132.13 460.09 141.57 460 151 C443.83 151 427.66 151 411 151 C409.36 147.72 409.84 144.08 409.83 140.47 C409.82 139.59 409.81 138.7 409.81 137.79 C409.79 135.87 409.78 133.95 409.77 132.03 C409.75 128.98 409.73 125.93 409.71 122.88 C409.63 114.21 409.57 105.54 409.52 96.88 C409.49 91.58 409.45 86.28 409.4 80.98 C409.39 78.96 409.37 76.94 409.37 74.93 C409.35 72.1 409.33 69.27 409.3 66.44 C409.3 65.2 409.3 65.2 409.3 63.94 C409.2 56.07 408.47 48.03 403 42 C396.51 37.58 389.65 37.15 382 38 C376.01 39.23 370.83 42.2 367 47 C362.75 55.2 360.86 62.37 360.79 71.53 C360.78 72.39 360.77 73.25 360.76 74.13 C360.73 76.97 360.71 79.81 360.68 82.64 C360.66 84.61 360.64 86.58 360.62 88.54 C360.57 93.72 360.52 98.89 360.47 104.07 C360.41 110.28 360.34 116.49 360.28 122.7 C360.18 132.13 360.09 141.57 360 151 C343.83 151 327.66 151 311 151 C309.82 148.65 309.88 147.26 309.89 144.64 C309.89 143.74 309.89 142.84 309.89 141.91 C309.89 140.94 309.9 139.96 309.9 138.96 C309.9 137.47 309.9 137.47 309.91 135.94 C309.91 132.75 309.92 129.56 309.94 126.38 C309.94 124.22 309.95 122.06 309.95 119.9 C309.96 114.6 309.98 109.3 310 104 C309.34 104 308.68 104 308 104 C307.91 104.85 307.82 105.7 307.72 106.57 C306.91 110.43 305.41 113.46 303.44 116.81 C303.08 117.43 302.72 118.04 302.35 118.67 C296.83 127.86 289.69 134.77 281 141 C280.15 141.61 279.31 142.22 278.43 142.84 C265.89 150.98 249.85 154.92 235 155 C233.94 155.03 232.88 155.05 231.78 155.08 C228.52 155.12 225.26 155.08 222 155 C220.53 154.99 220.53 154.99 219.03 154.98 C197.72 154.22 180.12 145.66 165 131 C164.38 130.45 163.75 129.9 163.11 129.33 C154.56 121.53 149.33 110.93 146 100 C145.66 99 145.66 99 145.32 97.97 C144.13 94.23 143.81 90.91 144 87 C143.67 87 143.34 87 143 87 C142.52 72.39 143.01 59.11 147 45 C134.45 39.83 124.96 37 111.9 41.75 C104.13 45.09 100.24 49.43 96.23 56.83 C92.25 67.12 92.66 77.84 92.59 88.7 C92.57 90.5 92.55 92.3 92.53 94.1 C92.48 98.81 92.44 103.52 92.4 108.24 C92.35 113.9 92.29 119.57 92.23 125.24 C92.14 133.83 92.07 142.41 92 151 C75.83 151 59.66 151 43 151 C41.83 148.67 41.88 147.33 41.89 144.73 C41.89 143.85 41.89 142.97 41.89 142.06 C41.89 141.11 41.9 140.16 41.9 139.18 C41.9 137.72 41.9 137.72 41.91 136.23 C41.91 133.11 41.92 129.99 41.94 126.88 C41.94 124.76 41.95 122.65 41.95 120.54 C41.96 115.36 41.98 110.18 42 105 C41.34 105 40.68 105 40 105 C39.89 105.69 39.79 106.38 39.68 107.09 C35.85 123.49 22.84 137.3 9 146 C-2.85 152.62 -14.94 154.55 -28.38 154.44 C-29.65 154.43 -30.93 154.42 -32.25 154.42 C-41.13 154.27 -48.79 153.6 -57 150 C-57.91 149.61 -58.82 149.23 -59.76 148.83 C-65.59 146.14 -69.67 143 -75 139 C-75.33 165.07 -75.66 191.14 -76 218 C-92.17 218 -108.34 218 -125 218 C-125 145.07 -125 72.14 -125 -3 C-85 -3 -85 -3 -82 -1 C-81.05 2.26 -81.05 2.26 -80.31 6.12 C-80.06 7.41 -79.81 8.69 -79.55 10.01 C-79.37 11 -79.19 11.98 -79 13 C-78.54 12.64 -78.08 12.27 -77.6 11.9 C-54.61 -5.82 -27.09 -12.13 0 0 Z M167 15 C167.33 15.66 167.66 16.32 168 17 C168.33 16.34 168.66 15.68 169 15 C168.34 15 167.68 15 167 15 Z M-68.25 49.38 C-75.73 60.59 -77.42 71.74 -76 85 C-74.87 89.38 -73.26 93.09 -71 97 C-70.62 97.69 -70.23 98.39 -69.84 99.11 C-65.57 105.91 -58.56 109.46 -50.96 111.49 C-39.75 113.41 -28.43 112.93 -18.73 106.49 C-12.1 101.19 -8.16 94.15 -6 86 C-5.57 82.11 -5.4 78.22 -5.25 74.31 C-5.19 73.27 -5.14 72.22 -5.08 71.15 C-5.04 70.15 -5 69.14 -4.95 68.11 C-4.91 67.2 -4.87 66.29 -4.83 65.36 C-4.82 62.73 -4.82 62.73 -7 60 C-7.6 58.59 -8.18 57.17 -8.75 55.75 C-12.83 46.6 -18.83 41.98 -28 38 C-43.25 33.89 -57.51 38.04 -68.25 49.38 Z M203 47 C194.35 57.25 191.67 68.82 192.74 81.94 C194.02 92.02 199.11 100.68 207 107 C216.94 112.97 228.83 113.79 240.02 111.34 C249.72 107.9 256.21 100.8 260.59 91.68 C262.82 85.64 262.32 79.35 262.19 73 C262.17 71.75 262.16 70.5 262.15 69.21 C262.11 66.14 262.06 63.07 262 60 C261.34 60 260.68 60 260 60 C260.5 58.52 260.5 58.52 261 57 C260.34 57 259.68 57 259 57 C258.81 56.17 258.63 55.35 258.44 54.5 C255.23 46.68 249.87 42.41 242.33 38.91 C228.73 33.6 213.41 36.95 203 47 Z M146 52 C147 54 147 54 147 54 Z M144 63 C145 66 145 66 145 66 Z M263 68 C263 72.62 263 77.24 263 82 C263.33 82 263.66 82 264 82 C264 77.38 264 72.76 264 68 C263.67 68 263.34 68 263 68 Z M-5 69 C-5 72.96 -5 76.92 -5 81 C-4.67 81 -4.34 81 -4 81 C-4 77.04 -4 73.08 -4 69 C-4.33 69 -4.66 69 -5 69 Z " fill="#DAD9D9" transform="translate(125,69)"/>
<path d="M0 0 C-0.56 4.66 -2.62 8.1 -5.06 12 C-5.46 12.65 -5.86 13.3 -6.27 13.97 C-7.1 15.31 -7.93 16.66 -8.76 18 C-9.96 19.93 -11.14 21.88 -12.3 23.84 C-13.02 25.02 -13.73 26.2 -14.44 27.38 C-15.08 28.43 -15.71 29.49 -16.37 30.59 C-18 33 -18 33 -20 34 C-22.43 33.13 -24.76 32.2 -27.12 31.19 C-36.08 27.49 -44.27 25.52 -54 25 C-55.21 24.93 -56.41 24.87 -57.65 24.8 C-65.67 24.56 -72.87 24.99 -80 29 C-82.06 32.09 -82.24 32.71 -82.12 36.19 C-82.06 38.07 -82.06 38.07 -82 40 C-81.28 40.12 -80.56 40.25 -79.81 40.38 C-77 41 -77 41 -74.82 42 C-71.25 43.27 -67.81 43.42 -64.06 43.56 C-50.86 44.14 -50.86 44.14 -49 46 C-47.55 46.21 -46.09 46.37 -44.62 46.5 C-41.83 46.76 -39.69 47.1 -37 48 C-36.02 48.31 -35.04 48.62 -34.03 48.95 C-20.22 53.56 -8.14 60.57 0 73 C5.77 84.83 6.97 97.45 3.25 110.12 C1.68 114.58 0.01 118.31 -3 122 C-3.47 122.62 -3.94 123.24 -4.42 123.88 C-14.57 136.59 -31.23 142.95 -47 145 C-52.77 145.44 -58.54 145.43 -64.32 145.39 C-66.93 145.38 -69.54 145.39 -72.15 145.41 C-82.48 145.42 -91.97 144.55 -102 142 C-103.14 141.71 -103.14 141.71 -104.31 141.41 C-111.72 139.36 -118.73 136.37 -125.62 133 C-126.29 132.68 -126.95 132.36 -127.63 132.03 C-131.86 129.88 -134.82 127.51 -138 124 C-134.5 116.77 -130.78 109.76 -126.68 102.85 C-124.38 98.94 -122.18 94.98 -120 91 C-115.11 92.62 -110.24 94.29 -105.38 96 C-104.25 96.39 -104.25 96.39 -103.1 96.79 C-97.36 98.8 -97.36 98.8 -94.94 100.12 C-91.96 101.48 -88.85 101.76 -85.62 102.12 C-84.9 102.21 -84.17 102.29 -83.42 102.38 C-77.08 103.02 -70.75 103.25 -64.38 103.31 C-63.45 103.33 -62.53 103.35 -61.58 103.37 C-55.98 103.36 -51.88 102.83 -47 100 C-45.86 96.37 -45.72 94.06 -46.7 90.38 C-47.79 87.85 -47.79 87.85 -50.16 86.9 C-57.31 85.22 -64.37 84.29 -71.69 83.62 C-91.54 81.54 -109.02 76.14 -123 61 C-128.73 53.72 -133 45.45 -133 36 C-133.8 35.75 -134.61 35.5 -135.44 35.25 C-138.25 34.26 -140.86 33.18 -143.56 31.94 C-152.83 27.78 -160.67 28.32 -170.1 31.75 C-177.87 35.09 -181.76 39.43 -185.77 46.83 C-189.75 57.12 -189.34 67.84 -189.41 78.7 C-189.43 80.5 -189.45 82.3 -189.47 84.1 C-189.52 88.81 -189.56 93.52 -189.6 98.24 C-189.65 103.9 -189.71 109.57 -189.77 115.24 C-189.86 123.83 -189.93 132.41 -190 141 C-206.17 141 -222.34 141 -239 141 C-240.32 138.36 -240.12 136.4 -240.11 133.45 C-240.11 132.27 -240.11 131.09 -240.11 129.88 C-240.11 128.64 -240.1 127.4 -240.1 126.12 C-240.1 124.98 -240.1 123.84 -240.09 122.67 C-240.09 118.4 -240.08 114.14 -240.06 109.88 C-240.04 100.35 -240.02 90.82 -240 81 C-276.3 80.67 -312.6 80.34 -350 80 C-344.76 91.78 -341.94 96.4 -330 101 C-311.64 106.44 -292.42 103.29 -275.8 94.52 C-274.88 94.02 -273.95 93.52 -273 93 C-272.34 92.67 -271.68 92.34 -271 92 C-270.31 92.69 -269.61 93.39 -268.9 94.11 C-266.91 96.09 -264.91 98.07 -262.91 100.05 C-253.08 109.79 -253.08 109.79 -248.69 114.56 C-248.16 115.14 -247.62 115.72 -247.07 116.32 C-246 118 -246 118 -246 122 C-259.15 136.73 -282.92 143.92 -302 145 C-327.93 146.01 -355.17 144.07 -375.25 125.69 C-390.24 111.44 -390.24 111.44 -391 105 C-391.66 105 -392.32 105 -393 105 C-393.82 103.13 -394.63 101.25 -395.44 99.38 C-395.89 98.33 -396.34 97.29 -396.81 96.21 C-397.96 93.11 -398.57 90.27 -399 87 C-399.33 87 -399.66 87 -400 87 C-405.65 65 -401.81 40.61 -390.37 21.11 C-378.02 2.08 -360.39 -9.06 -338.75 -14.88 C-323.26 -17.84 -305.09 -17.8 -290 -13 C-289.28 -12.78 -288.56 -12.57 -287.82 -12.34 C-285.81 -11.67 -283.93 -10.87 -282 -10 C-281.08 -9.59 -280.15 -9.18 -279.2 -8.76 C-271.97 -5.36 -265.96 -1.31 -260 4 C-259.3 4.62 -258.6 5.23 -257.88 5.87 C-250.7 12.6 -243.8 21.12 -242 31 C-241.34 30.67 -240.68 30.34 -240 30 C-240.01 28.77 -240.02 27.54 -240.03 26.27 C-240.07 21.71 -240.09 17.15 -240.11 12.59 C-240.12 10.62 -240.13 8.64 -240.15 6.67 C-240.18 3.83 -240.19 1 -240.2 -1.84 C-240.21 -2.72 -240.22 -3.61 -240.23 -4.52 C-240.23 -6.68 -240.12 -8.84 -240 -11 C-237.37 -13.63 -235.48 -13.24 -231.9 -13.25 C-231.07 -13.25 -230.24 -13.24 -229.38 -13.23 C-228.1 -13.23 -228.1 -13.23 -226.79 -13.23 C-224.97 -13.23 -223.16 -13.22 -221.35 -13.21 C-218.58 -13.19 -215.8 -13.19 -213.03 -13.19 C-211.27 -13.18 -209.51 -13.17 -207.75 -13.17 C-206.92 -13.17 -206.09 -13.17 -205.23 -13.16 C-201.91 -13.14 -199.18 -13.06 -196 -12 C-194.31 -6.84 -193.77 -2.4 -194 3 C-193.01 3 -192.02 3 -191 3 C-189.63 1.66 -189.63 1.66 -188.38 -0.12 C-181.17 -8.95 -169.25 -14.99 -157.97 -16.22 C-143.5 -17.04 -131.33 -13.86 -119 -6 C-118.34 -5.34 -117.68 -4.68 -117 -4 C-111.73 -4.27 -108.07 -5.77 -103.5 -8.31 C-72.72 -24.66 -28.45 -19.15 0 0 Z M-74 -16 C-74 -15.67 -74 -15.34 -74 -15 C-70.7 -15 -67.4 -15 -64 -15 C-64 -15.33 -64 -15.66 -64 -16 C-67.3 -16 -70.6 -16 -74 -16 Z M-61 -16 C-61 -15.67 -61 -15.34 -61 -15 C-57.37 -15 -53.74 -15 -50 -15 C-50 -15.33 -50 -15.66 -50 -16 C-53.63 -16 -57.26 -16 -61 -16 Z M-344.31 35.25 C-347.54 40.51 -350 45.79 -350 52 C-328.22 52 -306.44 52 -284 52 C-284.5 51.01 -284.5 51.01 -285 50 C-284.72 48.32 -284.39 46.65 -284 45 C-284.66 45 -285.32 45 -286 45 C-286.08 44.13 -286.16 43.27 -286.25 42.38 C-287.71 35.79 -291.66 31.88 -297 28 C-313.02 20.13 -331.54 22.82 -344.31 35.25 Z M-132 36 C-131 39 -131 39 -131 39 Z M-399 44 C-398 46 -398 46 -398 46 Z M-61 45 C-61 45.33 -61 45.66 -61 46 C-59.35 46 -57.7 46 -56 46 C-56 45.67 -56 45.34 -56 45 C-57.65 45 -59.3 45 -61 45 Z M-401 56 C-400 60 -400 60 -400 60 Z M-401 72 C-400 76 -400 76 -400 76 Z M-313 105 C-309 106 -309 106 -309 106 Z M-66 105 C-66 105.33 -66 105.66 -66 106 C-64.35 106 -62.7 106 -61 106 C-61 105.67 -61 105.34 -61 105 C-62.65 105 -64.3 105 -66 105 Z " fill="#FB5756" transform="translate(1275,79)"/>
<path d="M0 0 C5.61 4.06 10.6 8.86 15.46 13.78 C16.06 13.12 16.65 12.46 17.27 11.78 C23.8 5.36 31.18 0.61 39.52 -3.09 C40.16 -3.38 40.79 -3.67 41.45 -3.96 C50.45 -7.77 59.32 -8.53 69.02 -8.41 C70.02 -8.41 71.01 -8.4 72.04 -8.4 C79.32 -8.36 79.32 -8.36 80.46 -7.22 C81.55 -7.14 82.64 -7.05 83.77 -6.97 C97.38 -5.36 109.78 3.56 118.46 13.78 C132.2 31.75 131.76 53.7 131.65 75.25 C131.65 77.38 131.65 79.51 131.64 81.64 C131.64 87.2 131.62 92.76 131.59 98.31 C131.57 105.01 131.56 111.7 131.55 118.4 C131.53 128.53 131.49 138.65 131.46 148.78 C114.96 148.78 98.46 148.78 81.46 148.78 C79.77 145.41 80.32 141.59 80.33 137.88 C80.33 136.5 80.33 136.5 80.33 135.09 C80.32 133.08 80.32 131.07 80.32 129.07 C80.32 124.79 80.29 120.52 80.27 116.25 C80.24 108.29 80.2 100.33 80.21 92.37 C80.21 86.83 80.18 81.3 80.14 75.77 C80.13 73.66 80.13 71.56 80.14 69.45 C80.15 66.49 80.13 63.54 80.1 60.58 C80.11 59.72 80.12 58.86 80.13 57.97 C80.03 52.21 78.61 48.47 75.53 43.6 C74.46 41.78 74.46 41.78 74.46 39.78 C73.74 39.49 73.01 39.2 72.27 38.91 C70.55 38.22 68.85 37.5 67.17 36.74 C60.27 34.3 52.54 34.84 45.96 37.91 C37.75 42.67 34.42 49.84 31.92 58.69 C31.15 62.19 31.28 65.75 31.25 69.31 C31.24 70.17 31.23 71.03 31.22 71.92 C31.19 74.75 31.17 77.59 31.14 80.42 C31.12 82.39 31.1 84.36 31.08 86.32 C31.02 91.5 30.97 96.67 30.92 101.85 C30.87 108.06 30.8 114.27 30.73 120.48 C30.64 129.91 30.55 139.35 30.46 148.78 C14.29 148.78 -1.88 148.78 -18.54 148.78 C-20.18 145.5 -19.71 141.86 -19.72 138.25 C-19.72 137.37 -19.73 136.49 -19.74 135.58 C-19.75 133.65 -19.76 131.73 -19.77 129.81 C-19.79 126.76 -19.81 123.71 -19.84 120.66 C-19.91 111.99 -19.97 103.33 -20.02 94.66 C-20.05 89.36 -20.09 84.06 -20.14 78.76 C-20.16 76.74 -20.17 74.73 -20.18 72.71 C-20.19 69.88 -20.21 67.05 -20.24 64.22 C-20.24 63.39 -20.24 62.57 -20.24 61.72 C-20.34 53.85 -21.07 45.81 -26.54 39.78 C-33.03 35.36 -39.9 34.94 -47.54 35.78 C-53.53 37.01 -58.72 39.99 -62.54 44.78 C-66.79 52.98 -68.68 60.15 -68.75 69.31 C-68.76 70.17 -68.77 71.03 -68.78 71.92 C-68.81 74.75 -68.83 77.59 -68.86 80.42 C-68.88 82.39 -68.9 84.36 -68.92 86.32 C-68.98 91.5 -69.03 96.67 -69.08 101.85 C-69.13 108.06 -69.2 114.27 -69.27 120.48 C-69.36 129.91 -69.45 139.35 -69.54 148.78 C-85.71 148.78 -101.88 148.78 -118.54 148.78 C-119.91 146.06 -119.67 143.91 -119.68 140.86 C-119.68 139.6 -119.69 138.34 -119.69 137.04 C-119.69 135.63 -119.69 134.22 -119.69 132.82 C-119.69 131.34 -119.69 129.87 -119.7 128.39 C-119.71 124.38 -119.71 120.37 -119.71 116.35 C-119.71 113.01 -119.71 109.66 -119.72 106.32 C-119.73 98.43 -119.73 90.54 -119.73 82.65 C-119.73 74.5 -119.74 66.36 -119.75 58.21 C-119.77 51.22 -119.77 44.23 -119.77 37.24 C-119.77 33.07 -119.77 28.89 -119.78 24.71 C-119.79 20.78 -119.79 16.86 -119.79 12.93 C-119.79 11.49 -119.79 10.04 -119.79 8.6 C-119.8 6.63 -119.8 4.67 -119.79 2.7 C-119.79 1.6 -119.79 0.5 -119.79 -0.64 C-119.54 -3.22 -119.54 -3.22 -117.54 -5.22 C-114.55 -5.42 -111.66 -5.5 -108.67 -5.48 C-107.35 -5.49 -107.35 -5.49 -106 -5.49 C-104.14 -5.49 -102.27 -5.49 -100.41 -5.48 C-97.55 -5.47 -94.7 -5.48 -91.84 -5.49 C-90.03 -5.49 -88.23 -5.49 -86.42 -5.48 C-85.56 -5.49 -84.7 -5.49 -83.82 -5.5 C-77.77 -5.45 -77.77 -5.45 -75.54 -3.22 C-74.93 -1.2 -74.4 0.85 -73.92 2.91 C-73.53 4.55 -73.53 4.55 -73.13 6.23 C-72.94 7.07 -72.74 7.91 -72.54 8.78 C-71.88 8.78 -71.22 8.78 -70.54 8.78 C-69.9 8.1 -69.26 7.42 -68.61 6.72 C-50.61 -11.64 -21.11 -13.37 0 0 Z " fill="#FC2947" transform="translate(554.54296875,71.21875)"/>
<path d="M0 0 C15.74 -0.1 31.47 -0.21 47.69 -0.31 C52.65 -0.36 57.62 -0.4 62.74 -0.45 C68.81 -0.47 68.81 -0.47 71.65 -0.48 C73.63 -0.48 75.62 -0.5 77.6 -0.53 C80.61 -0.56 83.61 -0.57 86.62 -0.57 C87.5 -0.59 88.38 -0.6 89.29 -0.62 C93.71 -0.58 95.43 -0.46 98.99 2.4 C100.74 4.66 102.35 6.85 103.8 9.3 C104.28 10.11 104.76 10.91 105.25 11.74 C105.75 12.59 106.24 13.44 106.75 14.31 C107.53 15.63 107.53 15.63 108.32 16.97 C113 24.91 117.54 32.93 122 41 C125.57 39.81 125.73 39.2 127.42 35.98 C128.09 34.73 128.09 34.73 128.77 33.46 C129.24 32.57 129.71 31.67 130.19 30.75 C131.17 28.92 132.15 27.09 133.14 25.26 C133.87 23.91 133.87 23.91 134.61 22.54 C137.52 17.23 140.72 12.09 144 7 C144.69 5.91 145.38 4.83 146.1 3.71 C148 1 148 1 150 0 C151.59 -0.1 153.18 -0.13 154.77 -0.13 C155.76 -0.13 156.75 -0.14 157.77 -0.14 C159.38 -0.14 159.38 -0.14 161.03 -0.13 C162.68 -0.13 162.68 -0.13 164.36 -0.14 C166.69 -0.14 169.02 -0.13 171.35 -0.13 C174.92 -0.13 178.49 -0.13 182.06 -0.14 C184.32 -0.14 186.58 -0.13 188.84 -0.13 C189.91 -0.13 190.98 -0.14 192.09 -0.14 C193.58 -0.13 193.58 -0.13 195.1 -0.13 C195.98 -0.13 196.85 -0.13 197.75 -0.13 C200 0 200 0 203 1 C202.36 4.22 201.22 6.54 199.48 9.32 C198.7 10.57 198.7 10.57 197.9 11.85 C197.05 13.19 197.05 13.19 196.19 14.56 C195.6 15.5 195.02 16.43 194.42 17.39 C192.62 20.27 190.81 23.13 189 26 C188.48 26.83 187.96 27.65 187.42 28.5 C185.46 31.61 183.5 34.71 181.54 37.81 C177.15 44.74 172.83 51.72 168.54 58.71 C167.78 59.94 167.78 59.94 167.01 61.2 C166.52 61.99 166.03 62.79 165.52 63.61 C164.48 65.25 163.38 66.86 162.25 68.44 C161.69 69.22 161.13 70 160.55 70.8 C160.04 71.49 159.53 72.18 159 72.89 C157.67 75.7 158.19 77.03 159 80 C160.07 82.1 160.07 82.1 161.48 84.11 C162 84.88 162.51 85.66 163.05 86.46 C163.62 87.29 164.18 88.12 164.77 88.97 C165.65 90.29 165.65 90.29 166.55 91.63 C168.44 94.45 170.35 97.26 172.25 100.06 C174.72 103.72 177.18 107.38 179.64 111.04 C180.25 111.94 180.86 112.84 181.49 113.78 C187.32 122.43 193.01 131.18 198.67 139.94 C200.54 142.84 202.43 145.73 204.31 148.62 C207 152.75 207 152.75 207 155 C199.3 155.23 191.59 155.39 183.89 155.49 C181.27 155.54 178.65 155.6 176.03 155.68 C172.26 155.79 168.49 155.84 164.71 155.88 C163.55 155.93 162.38 155.97 161.18 156.02 C153.23 156.02 153.23 156.02 149.66 153.04 C145 147.29 145 147.29 145 143 C144.34 143 143.68 143 143 143 C142.48 142.05 141.96 141.11 141.42 140.13 C135.56 129.58 129.35 119.26 123 109 C122.37 110.09 122.37 110.09 121.72 111.19 C99.12 149.88 99.12 149.88 94 155 C92.42 155.1 90.83 155.13 89.24 155.13 C88.22 155.13 87.2 155.14 86.15 155.14 C85.02 155.14 83.89 155.13 82.73 155.13 C81.56 155.13 80.38 155.13 79.17 155.14 C76.65 155.14 74.13 155.13 71.6 155.13 C67.89 155.13 64.18 155.13 60.46 155.14 C40.28 155.13 20.2 154.55 0 154 C0 103.18 0 52.36 0 0 Z M49 13 C49 54.25 49 95.5 49 138 C51.81 136.6 51.84 134.9 53 132 C54.29 129.93 55.63 127.89 57 125.88 C57.89 124.55 58.78 123.23 59.68 121.91 C60.19 121.16 60.7 120.4 61.23 119.62 C64.5 114.77 67.75 109.9 71 105.04 C72.16 103.29 73.32 101.55 74.49 99.81 C75.97 97.6 77.43 95.39 78.9 93.17 C80.28 91.08 81.69 89 83.11 86.94 C83.75 85.98 84.39 85.03 85.05 84.05 C85.62 83.22 86.19 82.38 86.78 81.53 C88.29 78.4 88.41 76.44 88 73 C86.89 70.44 86.89 70.44 85.22 68.06 C84.63 67.15 84.04 66.25 83.43 65.31 C82.79 64.36 82.16 63.41 81.5 62.44 C80.2 60.45 78.9 58.46 77.59 56.46 C76.97 55.51 76.34 54.56 75.69 53.58 C73.73 50.59 71.85 47.56 70 44.5 C66.28 38.42 62.49 32.4 58.69 26.38 C58.08 25.4 57.46 24.43 56.83 23.42 C55.96 22.05 55.96 22.05 55.07 20.65 C54.55 19.83 54.03 19 53.5 18.15 C51.91 15.73 51.91 15.73 49 13 Z M123 42 C124 45 124 45 124 45 Z M89 76 C90 78 90 78 90 78 Z " fill="#C86AE3" transform="translate(691,66)"/>
<path d="M0 0 C-0.56 4.66 -2.62 8.1 -5.06 12 C-5.46 12.65 -5.86 13.3 -6.27 13.97 C-7.1 15.31 -7.93 16.66 -8.76 18 C-9.96 19.93 -11.14 21.88 -12.3 23.84 C-13.02 25.02 -13.73 26.2 -14.44 27.38 C-15.08 28.43 -15.71 29.49 -16.37 30.59 C-18 33 -18 33 -20 34 C-22.43 33.13 -24.76 32.2 -27.12 31.19 C-36.08 27.49 -44.27 25.52 -54 25 C-55.21 24.93 -56.41 24.87 -57.65 24.8 C-65.67 24.56 -72.87 24.99 -80 29 C-82.06 32.09 -82.24 32.71 -82.12 36.19 C-82.08 37.45 -82.04 38.7 -82 40 C-81.28 40.12 -80.56 40.25 -79.81 40.38 C-77 41 -77 41 -74.82 42 C-71.25 43.27 -67.81 43.42 -64.06 43.56 C-50.86 44.14 -50.86 44.14 -49 46 C-47.55 46.21 -46.09 46.37 -44.62 46.5 C-41.83 46.76 -39.69 47.1 -37 48 C-35.53 48.47 -35.53 48.47 -34.03 48.95 C-20.22 53.56 -8.14 60.57 0 73 C5.77 84.83 6.97 97.45 3.25 110.12 C1.68 114.58 0.01 118.31 -3 122 C-3.47 122.62 -3.94 123.24 -4.42 123.88 C-14.57 136.59 -31.23 142.95 -47 145 C-52.77 145.44 -58.54 145.43 -64.32 145.39 C-66.93 145.38 -69.54 145.39 -72.15 145.41 C-82.48 145.42 -91.97 144.55 -102 142 C-102.76 141.81 -103.52 141.61 -104.31 141.41 C-111.72 139.36 -118.73 136.37 -125.62 133 C-126.29 132.68 -126.95 132.36 -127.63 132.03 C-131.86 129.88 -134.82 127.51 -138 124 C-134.5 116.77 -130.78 109.76 -126.68 102.85 C-124.38 98.94 -122.18 94.98 -120 91 C-115.11 92.62 -110.24 94.29 -105.38 96 C-104.62 96.26 -103.87 96.52 -103.1 96.79 C-97.36 98.8 -97.36 98.8 -94.94 100.12 C-91.96 101.48 -88.85 101.76 -85.62 102.12 C-84.9 102.21 -84.17 102.29 -83.42 102.38 C-77.08 103.02 -70.75 103.25 -64.38 103.31 C-63.45 103.33 -62.53 103.35 -61.58 103.37 C-55.98 103.36 -51.88 102.83 -47 100 C-45.86 96.37 -45.72 94.06 -46.7 90.38 C-47.79 87.85 -47.79 87.85 -50.16 86.9 C-57.31 85.22 -64.37 84.29 -71.69 83.62 C-91.49 81.55 -109.09 76.16 -123 61 C-130.9 50.46 -133.22 41.05 -132 28 C-129.9 16.59 -124.62 5.8 -115 -1 C-115.33 -1.66 -115.66 -2.32 -116 -3 C-114.67 -3.56 -114.67 -3.56 -113.31 -4.12 C-110.89 -5.15 -108.53 -6.23 -106.17 -7.39 C-73.48 -23.32 -30.34 -20.42 0 0 Z M-74 -16 C-74 -15.67 -74 -15.34 -74 -15 C-70.7 -15 -67.4 -15 -64 -15 C-64 -15.33 -64 -15.66 -64 -16 C-67.3 -16 -70.6 -16 -74 -16 Z M-61 -16 C-61 -15.67 -61 -15.34 -61 -15 C-57.37 -15 -53.74 -15 -50 -15 C-50 -15.33 -50 -15.66 -50 -16 C-53.63 -16 -57.26 -16 -61 -16 Z M-61 45 C-61 45.33 -61 45.66 -61 46 C-59.35 46 -57.7 46 -56 46 C-56 45.67 -56 45.34 -56 45 C-57.65 45 -59.3 45 -61 45 Z M-66 105 C-66 105.33 -66 105.66 -66 106 C-64.35 106 -62.7 106 -61 106 C-61 105.67 -61 105.34 -61 105 C-62.65 105 -64.3 105 -66 105 Z " fill="#F966C2" transform="translate(1275,79)"/>
<path d="M0 0 C1.89 1.58 3.4 3.12 5 5 C4.15 5.6 3.31 6.2 2.44 6.81 C-7.36 15.08 -11.57 27.91 -12.75 40.31 C-12.85 41.87 -12.94 43.44 -13 45 C-13.33 44.01 -13.66 43.02 -14 42 C-15.97 41.26 -17.98 40.61 -20 40 C-21.53 39.33 -23.05 38.64 -24.56 37.94 C-33.83 33.78 -41.67 34.32 -51.1 37.75 C-58.87 41.09 -62.76 45.43 -66.77 52.83 C-70.75 63.12 -70.34 73.84 -70.41 84.7 C-70.43 86.5 -70.45 88.3 -70.47 90.1 C-70.52 94.81 -70.56 99.52 -70.6 104.24 C-70.65 109.9 -70.71 115.57 -70.77 121.24 C-70.86 129.83 -70.93 138.41 -71 147 C-87.17 147 -103.34 147 -120 147 C-121.15 144.71 -121.12 143.44 -121.11 140.89 C-121.11 139.6 -121.11 139.6 -121.11 138.29 C-121.11 136.87 -121.11 136.87 -121.1 135.43 C-121.1 134.43 -121.09 133.44 -121.09 132.41 C-121.09 130.25 -121.08 128.09 -121.08 125.93 C-121.06 122.51 -121.06 119.1 -121.05 115.68 C-121.04 108.43 -121.02 101.19 -121 93.94 C-120.98 85.54 -120.96 77.14 -120.94 68.74 C-120.94 65.36 -120.93 61.99 -120.91 58.61 C-120.91 56.56 -120.91 54.5 -120.9 52.45 C-120.9 51.5 -120.89 50.55 -120.89 49.58 C-120.89 47.38 -120.94 45.19 -121 43 C-121.33 42.67 -121.66 42.34 -122 42 C-122.12 39.5 -122.12 39.5 -122 37 C-121.51 36.5 -121.51 36.5 -121 36 C-120.94 32.99 -120.93 30.01 -120.97 27 C-120.99 25.15 -121 23.29 -121.01 21.44 C-121.03 18.49 -121.06 15.55 -121.1 12.61 C-121.13 9.78 -121.14 6.96 -121.16 4.13 C-121.17 3.25 -121.19 2.36 -121.2 1.45 C-121.21 -0.7 -121.11 -2.85 -121 -5 C-118.37 -7.63 -116.48 -7.24 -112.9 -7.25 C-112.07 -7.25 -111.24 -7.24 -110.38 -7.23 C-109.1 -7.23 -109.1 -7.23 -107.79 -7.23 C-105.97 -7.23 -104.16 -7.22 -102.35 -7.21 C-99.58 -7.19 -96.8 -7.19 -94.03 -7.19 C-92.27 -7.18 -90.51 -7.17 -88.75 -7.17 C-87.92 -7.17 -87.09 -7.17 -86.23 -7.16 C-82.91 -7.14 -80.18 -7.06 -77 -6 C-75.31 -0.84 -74.77 3.6 -75 9 C-74.01 9 -73.02 9 -72 9 C-70.63 7.66 -70.63 7.66 -69.38 5.88 C-52.05 -15.36 -21.17 -13.91 0 0 Z " fill="#FB2947" transform="translate(1156,73)"/>
<path d="M0 0 C14.19 0 28.38 0 43 0 C49.24 7.81 49.24 7.81 49.3 13.09 C49.31 14.14 49.33 15.2 49.35 16.28 C49.35 17.44 49.36 18.59 49.37 19.78 C49.38 21 49.4 22.21 49.41 23.47 C49.45 26.81 49.48 30.14 49.5 33.48 C49.52 36.27 49.55 39.06 49.58 41.86 C49.64 48.44 49.7 55.03 49.74 61.62 C49.79 68.41 49.86 75.19 49.93 81.98 C50 87.81 50.05 93.64 50.09 99.47 C50.12 102.95 50.15 106.43 50.19 109.91 C50.24 113.8 50.26 117.69 50.28 121.57 C50.3 122.72 50.31 123.86 50.33 125.04 C50.35 136.35 47.55 141.18 41 151 C58.49 151.33 75.98 151.66 94 152 C94 152.33 94 152.66 94 153 C86.56 153.03 79.12 153.04 71.68 153.05 C69.17 153.06 66.66 153.07 64.14 153.08 C42.73 153.15 21.42 152.58 0 152 C0 101.84 0 51.68 0 0 Z " fill="#F966C2" transform="translate(691,68)"/>
<path d="M0 0 C1.01 -0.01 2.01 -0.02 3.05 -0.03 C9.14 0.03 12.64 0.6 17.31 4.56 C18.58 5.46 18.58 5.46 19.88 6.38 C25.55 11.47 28.74 16.98 29.53 24.69 C29.83 31.84 28.13 37.75 24.25 43.75 C19.4 48.98 12.66 53.16 5.44 53.54 C4.74 53.55 4.04 53.55 3.31 53.56 C2.43 53.61 1.56 53.66 0.65 53.71 C-9.71 54.08 -15.21 51.44 -22.9 44.6 C-24.73 42.51 -25.31 41.27 -25.69 38.56 C-26.35 38.56 -27.01 38.56 -27.69 38.56 C-30.76 32.04 -30.98 24 -28.96 17.08 C-28.01 15.09 -26.97 13.36 -25.69 11.56 C-24.97 10.51 -24.24 9.46 -23.5 8.38 C-16.47 1.34 -9.74 -0.23 0 0 Z " fill="#F966C2" transform="translate(715.6875,-0.5625)"/>
<path d="M0 0 C0.33 0 0.66 0 1 0 C1 49.5 1 99 1 150 C0.67 150 0.34 150 0 150 C0 100.5 0 51 0 0 Z " fill="#FA66C2" transform="translate(689,68)"/>
<path d="M0 0 C0.33 0 0.66 0 1 0 C1 1.65 1 3.3 1 5 C0.67 5 0.34 5 0 5 C0 3.35 0 1.7 0 0 Z " fill="#FA66C2" transform="translate(685,24)"/>
<path d="" fill="#FA66C2" transform="translate(0,0)"/>
</svg>
